<svg xmlns="http://www.w3.org/2000/svg" width="225" height="284" fill="none" viewBox="0 0 225 284"><path fill="#fff" d="M85.4154 119.067C84.3765 118.044 83.7929 116.656 83.7929 115.208C83.7929 113.761 84.3765 112.373 85.4154 111.349L107.582 89.516C108.621 88.4927 110.031 87.9178 111.5 87.9178C112.969 87.9178 114.379 88.4927 115.418 89.516L137.585 111.349C138.114 111.853 138.536 112.455 138.827 113.121C139.117 113.787 139.27 114.503 139.276 115.228C139.283 115.953 139.142 116.671 138.864 117.342C138.585 118.013 138.174 118.623 137.653 119.135C137.133 119.648 136.514 120.053 135.833 120.327C135.152 120.602 134.422 120.74 133.687 120.734C132.951 120.727 132.224 120.577 131.548 120.291C130.871 120.005 130.26 119.589 129.749 119.067L111.5 101.093L93.2513 119.067C92.2121 120.091 90.8028 120.666 89.3333 120.666C87.8639 120.666 86.4546 120.091 85.4154 119.067ZM85.4154 173.651L107.582 195.484C108.621 196.507 110.031 197.082 111.5 197.082C112.969 197.082 114.379 196.507 115.418 195.484L137.585 173.651C138.594 172.621 139.153 171.242 139.14 169.811C139.127 168.38 138.545 167.011 137.517 165.999C136.49 164.987 135.1 164.413 133.647 164.401C132.194 164.388 130.794 164.938 129.749 165.933L111.5 183.907L93.2513 165.933C92.7401 165.411 92.1286 164.995 91.4525 164.709C90.7764 164.423 90.0492 164.273 89.3134 164.266C88.5776 164.26 87.8478 164.398 87.1668 164.673C86.4857 164.947 85.867 165.352 85.3467 165.865C84.8264 166.377 84.4149 166.987 84.1362 167.658C83.8576 168.329 83.7174 169.047 83.7238 169.772C83.7302 170.497 83.883 171.213 84.1735 171.879C84.4639 172.545 84.8861 173.147 85.4154 173.651V173.651Z"/></svg>